<svg width="16" height="16" viewBox="0 0 16 16" fill="none" xmlns="http://www.w3.org/2000/svg">
<g clip-path="url(#clip0_647_8928)">
<path d="M12.9345 5.63323C12.2159 4.825 11.2146 4.45595 9.96804 4.52915C9.66794 4.54745 9.36783 4.5993 9.07639 4.64505C8.99559 4.65725 8.91768 4.6725 8.83688 4.6847C8.86285 4.4102 8.9927 3.95271 9.4544 3.30917C9.61888 3.07738 9.58426 2.74188 9.37938 2.52229C9.35918 2.50094 9.33898 2.48264 9.31878 2.46434C9.06196 2.25084 8.70991 2.28134 8.52812 2.53449C8.49926 2.57414 8.47618 2.61379 8.44732 2.65344C8.31458 2.27524 8.11259 1.8635 7.80671 1.51581C6.8256 0.405629 4.97304 0.0274357 4.89512 0.00913602C4.72199 -0.0244133 4.54308 0.0243857 4.40745 0.143333C4.27183 0.262281 4.19392 0.439178 4.19392 0.625224C4.19392 0.744172 4.217 3.56842 6.21385 4.23941C6.73038 4.41325 7.27287 4.4529 7.65666 4.4529C7.67398 4.4529 7.69129 4.4529 7.7086 4.4529C7.69706 4.5627 7.69418 4.6603 7.69706 4.75485C7.44313 4.7335 7.19208 4.69385 6.9266 4.6481C6.63804 4.5993 6.33793 4.5505 6.03494 4.5322C4.78547 4.459 3.78705 4.82805 3.06853 5.63628C2.12782 6.68851 1.74691 8.48188 1.99508 10.6778C2.16533 12.1815 3.10315 14.719 4.65562 15.6492C5.49822 16.1555 6.27157 16.003 6.95546 15.8688C7.29019 15.8048 7.63358 15.7346 8.00005 15.7346C8.36652 15.7346 8.70991 15.8017 9.04465 15.8688C9.36783 15.9329 9.71122 16 10.0719 16C10.4759 16 10.9001 15.9176 11.3445 15.6492C12.8969 14.719 13.8348 12.1815 14.005 10.6778C14.2532 8.48188 13.8723 6.68851 12.9345 5.63018V5.63323ZM6.57167 3.04688C5.90798 2.82423 5.61364 2.0831 5.48091 1.47921C5.98877 1.6683 6.58033 1.96415 6.93814 2.37284C7.13725 2.59854 7.27576 2.90963 7.3681 3.19328C7.11994 3.17803 6.83715 3.13838 6.57167 3.04688ZM12.8306 10.5314C12.6661 11.9771 11.7975 13.9443 10.7616 14.5635C10.3143 14.8319 9.93919 14.7739 9.25818 14.6428C8.88882 14.5696 8.47329 14.4903 8.00005 14.4903C7.52681 14.4903 7.10839 14.5726 6.74192 14.6428C6.06091 14.777 5.68578 14.8319 5.23851 14.5635C4.20258 13.9413 3.33112 11.9771 3.16952 10.5314C2.96465 8.70757 3.23301 7.27105 3.92844 6.49026C4.39591 5.96567 5.08269 5.72473 5.96569 5.77963C6.20808 5.79488 6.46779 5.83758 6.73904 5.88333C7.13725 5.95042 7.54989 6.01752 8.00005 6.01752C8.45021 6.01752 8.86285 5.94737 9.26107 5.88333C9.5352 5.83758 9.79202 5.79488 10.0344 5.77963C10.9174 5.72473 11.6042 5.96567 12.0717 6.49026C12.7671 7.2741 13.0383 8.70757 12.8306 10.5314Z" fill="black"/>
</g>
<defs>
<clipPath id="clip0_647_8928">
<rect width="12.16" height="16" fill="white" transform="translate(1.92)"/>
</clipPath>
</defs>
</svg>
