<svg width="16" height="16" viewBox="0 0 16 16" fill="none" xmlns="http://www.w3.org/2000/svg">
<path d="M11.5124 13.07V8.16404C11.5149 8.14132 11.5175 8.11609 11.5149 8.09338C11.4971 6.53375 10.9062 5.57476 9.8899 4.44669C9.66322 4.19432 9.53841 3.86877 9.53841 3.5306V0.885804C9.53841 0.398738 9.13853 0 8.6444 0H7.35306C6.86148 0 6.4616 0.396214 6.4616 0.885804V3.52808C6.4616 3.86625 6.33679 4.1918 6.1101 4.44416C5.07856 5.59243 4.48 6.56656 4.48 8.15899V14.3319C4.48 15.2202 5.22374 16 6.06935 16H9.93066C10.7763 16 11.52 15.2202 11.52 14.3319V13.1533C11.52 13.1256 11.52 13.0978 11.5124 13.07ZM9.14362 5.10536C9.91537 5.96341 10.3764 6.65489 10.4885 7.64164H7.42692C7.17222 7.64164 6.96591 7.84606 6.96591 8.09842V13.118C6.96591 13.3703 7.17222 13.5748 7.42692 13.5748H10.5165V14.3319C10.5165 14.6801 10.2312 15.0082 9.92811 15.0082H6.06935C5.76626 15.0082 5.48099 14.6801 5.48099 14.3319V8.15899C5.48099 6.87445 5.96492 6.09464 6.85639 5.10536C7.24608 4.66877 7.46258 4.11104 7.46258 3.52808V0.991798H8.53488V3.52808C8.53488 4.10852 8.74883 4.66877 9.14107 5.10536H9.14362ZM10.5114 12.6612H7.88793V8.55521H10.5088V12.6612H10.5114Z" fill="white"/>
</svg>
