<svg width="16" height="16" viewBox="0 0 16 16" fill="none" xmlns="http://www.w3.org/2000/svg">
<g clip-path="url(#clip0_647_8935)">
<path d="M8.50979 16C8.34834 16 8.18688 15.9369 8.06341 15.8139L6.51217 14.2681C6.26523 14.0221 6.26523 13.6215 6.51217 13.3754L8.06025 11.8328C8.30718 11.5868 8.70924 11.5868 8.95617 11.8328C9.2031 12.0789 9.2031 12.4795 8.95617 12.7256L8.48763 13.1924H13.5434C13.974 13.1924 14.3602 12.9716 14.5755 12.5994C14.7908 12.2271 14.7908 11.7823 14.5755 11.4101L13.344 9.28076C13.1699 8.97792 13.2743 8.59306 13.5751 8.41956C13.879 8.24606 14.2652 8.35016 14.4394 8.64984L15.6709 10.7792C16.1141 11.5457 16.1141 12.4606 15.6709 13.2271C15.2276 13.9937 14.4299 14.4511 13.5403 14.4511H8.4908L8.95934 14.918C9.20627 15.164 9.20627 15.5647 8.95934 15.8107C8.83587 15.9338 8.67441 15.9968 8.51296 15.9968L8.50979 16ZM5.30283 14.4543H2.4631C1.5735 14.4543 0.778886 13.9968 0.332507 13.2303C-0.113872 12.4637 -0.110706 11.5457 0.332507 10.7792L2.4441 7.14196L1.85843 7.29338C1.51969 7.3817 1.17461 7.17981 1.08597 6.84227C0.997327 6.50473 1.19994 6.16088 1.53868 6.07256L3.66294 5.52366C3.82756 5.48265 3.99851 5.50473 4.14414 5.5899C4.28977 5.67508 4.39424 5.81388 4.4354 5.97476L4.98625 8.08517C5.07489 8.42271 4.87228 8.76656 4.53354 8.85489C4.19479 8.94322 3.84972 8.74132 3.76108 8.40378L3.57746 7.70662L1.42788 11.4132C1.2126 11.7855 1.2126 12.2303 1.42788 12.6025C1.64315 12.9748 2.02938 13.1956 2.45993 13.1956H5.29966C5.6479 13.1956 5.93282 13.4795 5.93282 13.8265C5.93282 14.1735 5.6479 14.4574 5.29966 14.4574L5.30283 14.4543ZM13.0401 8.21766C12.9894 8.21766 12.9419 8.21136 12.8913 8.19874L10.7638 7.68454C10.4251 7.60252 10.2162 7.26183 10.2985 6.92429C10.3808 6.58675 10.7227 6.37855 11.0614 6.46057L11.7769 6.63407L9.03215 1.85489C8.81688 1.4858 8.43065 1.26183 8.0001 1.26183C7.56955 1.26183 7.18332 1.48265 6.96804 1.85489L5.10655 5.0694C4.93243 5.37224 4.54303 5.47634 4.24228 5.29968C3.93836 5.12618 3.83389 4.74132 4.01118 4.43849L5.86951 1.22397C6.31272 0.457413 7.1105 0 8.0001 0C8.88969 0 9.68431 0.457413 10.1275 1.22397L12.8026 5.88013L12.9419 5.3123C13.0242 4.97476 13.3661 4.76656 13.708 4.84858C14.0468 4.9306 14.2557 5.27129 14.1734 5.61199L13.6574 7.73817C13.5877 8.02839 13.3282 8.22082 13.0432 8.22082L13.0401 8.21766Z" fill="black"/>
</g>
<defs>
<clipPath id="clip0_647_8935">
<rect width="16" height="16" fill="white"/>
</clipPath>
</defs>
</svg>
