<svg width="16" height="16" viewBox="0 0 16 16" fill="none" xmlns="http://www.w3.org/2000/svg">
<path d="M7.9904 0.320068C3.76 0.320068 0.32 3.76007 0.32 7.99047C0.32 12.2209 3.76 15.6609 7.9904 15.6609C12.2208 15.6609 15.6608 12.2209 15.6608 7.99047C15.6608 3.76007 12.2208 0.320068 7.9904 0.320068ZM7.9904 14.3809C4.4672 14.3809 1.6 11.5137 1.6 7.99047C1.6 4.46727 4.4672 1.60007 7.9904 1.60007C11.5136 1.60007 14.3808 4.46727 14.3808 7.99047C14.3808 11.5137 11.5136 14.3809 7.9904 14.3809Z" fill="black"/>
<path d="M8.43776 10.0058V9.61408C8.43776 8.83072 8.78336 8.51968 9.17504 8.1856C10.2118 7.22944 10.3386 6.6304 10.3386 6.08896C10.3386 4.41856 9.0944 3.4624 7.7696 3.4624C7.63136 3.4624 5.32736 3.4624 5.12 6.12352H6.65216C6.72128 5.66272 6.82496 4.99456 7.72352 4.99456C8.13824 4.99456 8.8064 5.20192 8.8064 6.08896C8.8064 6.60736 8.47232 6.9184 7.93088 7.36768C7.14752 8.02432 6.9056 8.86528 6.9056 9.67168V10.0058H8.43776ZM6.9056 12.16H8.43776V10.6278H6.9056V12.16Z" fill="black"/>
</svg>
