<svg width="16" height="16" viewBox="0 0 16 16" fill="none" xmlns="http://www.w3.org/2000/svg">
<g clip-path="url(#clip0_647_8921)">
<path d="M5.282 12.1598C5.43049 12.1598 5.57316 12.1024 5.67885 12C5.78454 11.8977 5.8451 11.7585 5.84714 11.6127V7.15598C5.84714 6.95789 5.73941 6.77466 5.56442 6.67547C5.38973 6.57628 5.17427 6.57628 4.99928 6.67547C4.82458 6.77437 4.71685 6.95789 4.71685 7.15598V11.6127C4.71889 11.7585 4.77945 11.8977 4.88514 12C4.99083 12.1024 5.1335 12.1598 5.282 12.1598Z" fill="white"/>
<path d="M8 12.1598C8.14849 12.1598 8.29116 12.1024 8.39685 12C8.50255 11.8977 8.56311 11.7585 8.56515 11.6127V7.15598C8.56515 6.95789 8.45742 6.77466 8.28243 6.67547C8.10773 6.57628 7.89227 6.57628 7.71728 6.67547C7.54229 6.77437 7.43456 6.95789 7.43456 7.15598V11.6127C7.4366 11.7585 7.49716 11.8977 7.60285 12C7.70855 12.1024 7.85122 12.1598 7.99971 12.1598H8Z" fill="white"/>
<path d="M10.718 12.1598C10.8665 12.1598 11.0092 12.1024 11.1149 12C11.2205 11.8977 11.2811 11.7585 11.2831 11.6127V7.15598C11.2831 6.95789 11.1754 6.77466 11.0007 6.67547C10.8257 6.57628 10.6103 6.57628 10.4356 6.67547C10.2606 6.77437 10.1529 6.95789 10.1529 7.15598V11.6127C10.1549 11.7585 10.2155 11.8977 10.3211 12C10.4268 12.1024 10.5695 12.1598 10.718 12.1598V12.1598Z" fill="white"/>
<path d="M14.7949 2.68644H11.178L10.7128 1.15627C10.6097 0.823826 10.4012 0.532257 10.1173 0.324156C9.83374 0.116342 9.48959 0.00257267 9.13554 0H6.86709C6.51304 0.00257267 6.16917 0.116056 5.88529 0.324156C5.6017 0.532257 5.39294 0.823826 5.28986 1.15627L4.82459 2.68644H1.20515C1.00337 2.68644 0.816739 2.7922 0.715706 2.96371C0.614672 3.13551 0.614672 3.34704 0.715706 3.51855C0.816448 3.69035 1.00337 3.79612 1.20515 3.79612H1.87803V14.4773C1.88065 14.8815 2.04603 15.2685 2.33806 15.5535C2.6301 15.8388 3.02491 15.9991 3.43662 15.9997H12.5817C12.9949 15.9991 13.3909 15.8376 13.6832 15.5506C13.9752 15.2639 14.1397 14.8749 14.1406 14.4693V3.77782H14.7951C14.9451 3.77782 15.0889 3.71951 15.1949 3.61546C15.3009 3.51141 15.3603 3.3702 15.3603 3.22298C15.3597 3.07777 15.2994 2.93885 15.1929 2.83765C15.0866 2.73646 14.9431 2.68186 14.7951 2.68615L14.7949 2.68644ZM6.38347 1.47357C6.41579 1.37095 6.47955 1.2809 6.56603 1.21573C6.6528 1.15055 6.7579 1.11339 6.86709 1.10968H9.15126C9.26306 1.10882 9.37167 1.14427 9.46076 1.21058C9.54957 1.2769 9.61362 1.37038 9.64274 1.47614L10.0055 2.68644H5.99157L6.38347 1.47357V1.47357ZM12.9704 14.5099C12.9704 14.6594 12.8866 14.746 12.8141 14.7977C12.7419 14.8494 12.6551 14.878 12.5654 14.88H3.43662C3.3219 14.878 3.21271 14.832 3.13206 14.752C3.05141 14.6719 3.00599 14.5642 3.00541 14.4515V3.77811H13.0097" fill="white"/>
</g>
<defs>
<clipPath id="clip0_647_8921">
<rect width="14.72" height="16" fill="white" transform="translate(0.639999)"/>
</clipPath>
</defs>
</svg>
