<svg width="20" height="20" viewBox="0 0 20 20" fill="none" xmlns="http://www.w3.org/2000/svg">
<g clip-path="url(#clip0_880_5587)">
<path d="M18.0698 2H15.0044C14.6225 2 14.3101 2.32847 14.3101 2.72993C14.3101 3.13139 14.6225 3.45985 15.0044 3.45985H18.0698C18.3684 3.45985 18.6114 3.71533 18.6114 4.03285V7.25547C18.6114 7.65693 18.9238 7.9854 19.3057 7.9854C19.6876 7.9854 20 7.65693 20 7.25547V4.03285C20 2.91241 19.1321 2 18.0698 2Z" fill="white"/>
<path d="M4.99913 17.5401H1.93022C1.63166 17.5401 1.38865 17.2847 1.38865 16.9708V13.7482C1.38865 13.3467 1.0762 13.0182 0.694324 13.0182C0.312446 13.0182 0 13.3467 0 13.7482V16.9708C0 18.0912 0.867905 19 1.93022 19H4.99913C5.38101 19 5.69346 18.6715 5.69346 18.2701C5.69346 17.8686 5.38101 17.5401 4.99913 17.5401Z" fill="white"/>
<path d="M19.3057 13.0182C18.9238 13.0182 18.6114 13.3467 18.6114 13.7482V16.9708C18.6114 17.2847 18.3684 17.5401 18.0698 17.5401H15.0044C14.6225 17.5401 14.3101 17.8686 14.3101 18.2701C14.3101 18.6715 14.6225 19 15.0044 19H18.0698C19.1356 19 20 18.0876 20 16.9708V13.7482C20 13.3467 19.6876 13.0182 19.3057 13.0182Z" fill="white"/>
<path d="M4.99913 2H1.93022C0.867905 2 0 2.91241 0 4.03285V7.25547C0 7.65693 0.312446 7.9854 0.694324 7.9854C1.0762 7.9854 1.38865 7.65693 1.38865 7.25547V4.03285C1.38865 3.71898 1.63166 3.45985 1.93022 3.45985H4.99913C5.38101 3.45985 5.69346 3.13139 5.69346 2.72993C5.69346 2.32847 5.38101 2 4.99913 2Z" fill="white"/>
<path d="M14.9867 7.20025C14.9867 7.17915 14.9823 7.15806 14.9734 7.13697C14.9645 7.11587 14.9556 7.099 14.9468 7.07791C14.9423 7.06947 14.9423 7.05681 14.9334 7.04838L12.2223 3.44564V2.31505C12.2223 2.2138 12.169 2.11255 12.0803 2.05349C11.9915 1.99443 11.8762 1.98599 11.7741 2.01974L6.60468 3.95188C6.48044 3.99829 6.39613 4.11641 6.39613 4.24297V5.31873L4.12424 6.98088C4.12424 6.98088 4.11537 6.98931 4.11093 6.99353C4.09318 7.00619 4.07987 7.02306 4.06656 7.04416C4.05325 7.06103 4.03994 7.07369 4.03106 7.09056C4.02219 7.10744 4.01775 7.12853 4.01331 7.1454C4.00887 7.1665 4 7.18759 4 7.20868C4 7.21712 4 7.22134 4 7.22978V15.7557C4 15.8822 4.08431 16.0004 4.20855 16.0468L9.37797 17.9789H9.38685C9.42235 17.9916 9.45785 18 9.49778 18C9.53772 18 9.57322 17.9916 9.60871 17.9789C9.60871 17.9789 9.61759 17.9789 9.62203 17.9789L14.7914 16.0468C14.9201 16.0004 15 15.8822 15 15.7557V7.234C15 7.234 14.9956 7.2129 14.9956 7.20025M9.69302 8.87927L7.17709 5.52966L11.712 3.83376L14.2279 7.18337L9.69302 8.87927ZM11.5611 2.7791V3.45408L7.05284 5.13732V4.46234L11.5611 2.7791ZM4.65228 7.38587L6.65349 5.92199L9.16055 9.26317V17.2238L4.65228 15.5405V7.38587ZM9.8217 17.228V9.25473L14.33 7.57149V15.5447L9.8217 17.228Z" fill="white"/>
</g>
<defs>
<clipPath id="clip0_880_5587">
<rect width="20" height="17" fill="white" transform="translate(0 2)"/>
</clipPath>
</defs>
</svg>
